<?xml version="1.0" encoding="UTF-8"?>
<!-- Generated by Pixelmator Pro 4.2 -->
<svg width="1165" height="1623" viewBox="0 0 1165 1623" xmlns="http://www.w3.org/2000/svg">
    <text id="ligeois-" xml:space="preserve" x="85.3625" y="1236" font-family="Helvetica Neue" font-size="275" font-weight="700" fill="#000000" letter-spacing="-2.75">liégeois</text>
    <text id="designs-" xml:space="preserve" x="132.3375" y="1482" font-family="Helvetica Neue" font-size="275" font-weight="300" fill="#000000" letter-spacing="-2.75">designs</text>
    <g id="Group"/>
    <linearGradient id="linearGradient1" x1="772.14609" y1="811.643527" x2="774.775799" y2="323.065838" gradientUnits="userSpaceOnUse">
        <stop offset="0" stop-color="#000000" stop-opacity="1"/>
        <stop offset="0.504743" stop-color="#fbfaf8" stop-opacity="0"/>
        <stop offset="1" stop-color="#000000" stop-opacity="1"/>
    </linearGradient>
    <path id="Rounded-Rectangle-copy-2" fill="none" stroke="url(#linearGradient1)" stroke-width="35.388859" stroke-linecap="round" stroke-linejoin="round" d="M 666.430664 734.610657 C 666.286804 752.663391 680.744812 773.40686 700.057922 781.486267 L 869.072998 852.191772 C 907.538818 868.283447 942.207153 859.214233 942.243286 830.188538 L 942.905029 298.825684 C 942.940186 270.584473 908.801941 263.025269 870.802185 280.048218 L 703.102051 355.174072 C 683.862915 363.792725 669.218994 384.67627 669.077576 402.422485 Z"/>
    <linearGradient id="linearGradient2" x1="574.320834" y1="836.821987" x2="577.476484" y2="250.528759" gradientUnits="userSpaceOnUse">
        <stop offset="0" stop-color="#000000" stop-opacity="1"/>
        <stop offset="0.504743" stop-color="#fbfaf8" stop-opacity="0"/>
        <stop offset="1" stop-color="#000000" stop-opacity="1"/>
    </linearGradient>
    <path id="Rounded-Rectangle-copy" fill="none" stroke="url(#linearGradient2)" stroke-width="35.388859" stroke-linecap="round" stroke-linejoin="round" d="M 447.462311 744.382568 C 447.289703 766.045837 464.639313 790.938049 487.815002 800.633301 L 690.633179 885.479858 C 736.792053 904.789917 778.394104 893.906799 778.4375 859.075989 L 779.231567 221.440552 C 779.273743 187.551147 738.307861 178.47998 692.70813 198.907593 L 491.467987 289.058594 C 468.380981 299.401001 450.808319 324.461304 450.638611 345.756714 Z"/>
    <linearGradient id="linearGradient3" x1="368.754265" y1="870.847661" x2="372.435857" y2="186.838896" gradientUnits="userSpaceOnUse">
        <stop offset="0" stop-color="#000000" stop-opacity="1"/>
        <stop offset="0.504743" stop-color="#fbfaf8" stop-opacity="0"/>
        <stop offset="1" stop-color="#000000" stop-opacity="1"/>
    </linearGradient>
    <path id="Rounded-Rectangle" fill="none" stroke="url(#linearGradient3)" stroke-width="35.388859" stroke-linecap="round" stroke-linejoin="round" d="M 220.752655 763.001648 C 220.551285 788.275513 240.792496 817.316345 267.83078 828.627502 L 504.451965 927.615173 C 558.304077 950.143555 606.839783 937.446655 606.89032 896.810669 L 607.816772 152.902588 C 607.865967 113.36499 560.072449 102.781982 506.872803 126.614258 L 272.092621 231.790405 C 245.157776 243.856567 224.656311 273.093506 224.458344 297.938232 Z"/>
</svg>
