<?xml version="1.0" encoding="UTF-8"?>
<!-- Generated by Pixelmator Pro 4.2 -->
<svg width="1827" height="587" viewBox="0 0 1827 587" xmlns="http://www.w3.org/2000/svg">
    <text id="ligeois-" xml:space="preserve" x="69.91" y="361" font-family="Helvetica Neue" font-size="180" font-weight="700" fill="#ffffff" letter-spacing="-1.8">liégeois</text>
    <text id="designs-" xml:space="preserve" x="1160.33" y="360" font-family="Helvetica Neue" font-size="180" font-weight="300" fill="#ffffff" letter-spacing="-1.8">designs</text>
    <linearGradient id="linearGradient1" x1="1043.68026" y1="443.025357" x2="1045.059961" y2="186.688394" gradientUnits="userSpaceOnUse">
        <stop offset="0" stop-color="#ffffff" stop-opacity="1"/>
        <stop offset="0.504743" stop-color="#fbfaf8" stop-opacity="0"/>
        <stop offset="1" stop-color="#ffffff" stop-opacity="1"/>
    </linearGradient>
    <path id="Rounded-Rectangle-copy-2" fill="none" stroke="url(#linearGradient1)" stroke-width="18.567102" stroke-linecap="round" stroke-linejoin="round" d="M 988.215637 402.609314 C 988.140198 412.080872 995.725708 422.964142 1005.858521 427.203064 L 1094.533936 464.299377 C 1114.715332 472.742035 1132.904419 467.983765 1132.92334 452.755188 L 1133.270508 173.970551 C 1133.289063 159.153534 1115.378052 155.1875 1095.441162 164.118805 L 1007.455627 203.534271 C 997.361633 208.056152 989.678589 219.012909 989.60437 228.323608 Z"/>
    <g id="Group">
        <linearGradient id="linearGradient2" x1="939.889344" y1="456.235477" x2="941.544986" y2="148.631121" gradientUnits="userSpaceOnUse">
            <stop offset="0" stop-color="#ffffff" stop-opacity="1"/>
            <stop offset="0.504743" stop-color="#fbfaf8" stop-opacity="0"/>
            <stop offset="1" stop-color="#ffffff" stop-opacity="1"/>
        </linearGradient>
        <path id="Rounded-Rectangle-copy" fill="none" stroke="url(#linearGradient2)" stroke-width="18.567102" stroke-linecap="round" stroke-linejoin="round" d="M 873.331787 407.736237 C 873.241272 419.102112 882.343872 432.162018 894.503235 437.248718 L 1000.913696 481.764282 C 1025.13147 491.895508 1046.958374 486.185577 1046.981079 467.911255 L 1047.397705 133.36969 C 1047.4198 115.589294 1025.926758 110.830048 1002.00238 121.547607 L 896.4198 168.846161 C 884.307007 174.27243 875.087341 187.420532 874.998291 198.593384 Z"/>
        <linearGradient id="linearGradient3" x1="832.036875" y1="474.087373" x2="833.968458" y2="115.215624" gradientUnits="userSpaceOnUse">
            <stop offset="0" stop-color="#ffffff" stop-opacity="1"/>
            <stop offset="0.504743" stop-color="#fbfaf8" stop-opacity="0"/>
            <stop offset="1" stop-color="#ffffff" stop-opacity="1"/>
        </linearGradient>
        <path id="Rounded-Rectangle" fill="none" stroke="url(#linearGradient3)" stroke-width="18.567102" stroke-linecap="round" stroke-linejoin="round" d="M 754.386414 417.504944 C 754.280762 430.765106 764.900513 446.001648 779.086426 451.936157 L 903.231995 503.870972 C 931.485962 515.690735 956.950684 509.029175 956.977234 487.709106 L 957.463318 97.410645 C 957.489136 76.66684 932.413818 71.11438 904.502075 83.618195 L 781.322388 138.799835 C 767.190796 145.130493 756.434509 160.46994 756.330627 173.504913 Z"/>
    </g>
</svg>
