<?xml version="1.0" encoding="UTF-8"?>
<!-- Generated by Pixelmator Pro 4.2 -->
<svg width="150" height="150" viewBox="0 0 150 150" xmlns="http://www.w3.org/2000/svg">
    <path id="Oval" fill="#000000" fill-rule="evenodd" stroke="none" d="M 150 75.127769 C 150 33.635849 116.364151 0 74.872231 0 C 33.380314 0 -0.255537 33.635849 -0.255537 75.127769 C -0.255537 116.61969 33.380314 150.255539 74.872231 150.255539 C 116.364151 150.255539 150 116.61969 150 75.127769 Z"/>
    <g id="Group">
        <linearGradient id="linearGradient1" x1="73.972292" y1="110.616713" x2="74.332114" y2="43.764797" gradientUnits="userSpaceOnUse">
            <stop offset="0" stop-color="#ffffff" stop-opacity="1"/>
            <stop offset="0.504743" stop-color="#fbfaf8" stop-opacity="0"/>
            <stop offset="1" stop-color="#ffffff" stop-opacity="1"/>
        </linearGradient>
        <path id="Rounded-Rectangle-copy" fill="none" stroke="url(#linearGradient1)" stroke-width="4.035204" stroke-linecap="round" stroke-linejoin="round" d="M 59.507286 100.076332 C 59.487602 102.546486 61.465889 105.384811 64.10849 106.490311 L 87.234772 116.164917 C 92.498032 118.36673 97.241692 117.125793 97.246635 113.154221 L 97.337173 40.448021 C 97.341988 36.583786 92.670868 35.549461 87.471375 37.878716 L 64.525017 48.15815 C 61.892532 49.337448 59.888813 52.194939 59.869465 54.623138 Z"/>
        <linearGradient id="linearGradient2" x1="96.52926" y1="107.745746" x2="96.829111" y2="52.035816" gradientUnits="userSpaceOnUse">
            <stop offset="0" stop-color="#ffffff" stop-opacity="1"/>
            <stop offset="0.504743" stop-color="#fbfaf8" stop-opacity="0"/>
            <stop offset="1" stop-color="#ffffff" stop-opacity="1"/>
        </linearGradient>
        <path id="Rounded-Rectangle-copy-2" fill="none" stroke="url(#linearGradient2)" stroke-width="4.035204" stroke-linecap="round" stroke-linejoin="round" d="M 84.47509 98.962097 C 84.458687 101.020554 86.107254 103.385826 88.309425 104.307076 L 107.581322 112.369247 C 111.967377 114.204102 115.920425 113.169983 115.924545 109.860336 L 116 49.271835 C 116.004005 46.051643 112.111404 45.189705 107.778496 47.130745 L 88.656532 55.696945 C 86.462791 56.679688 84.79303 59.060928 84.776901 61.084435 Z"/>
        <linearGradient id="linearGradient3" x1="50.532624" y1="114.49648" x2="50.952416" y2="36.502579" gradientUnits="userSpaceOnUse">
            <stop offset="0" stop-color="#ffffff" stop-opacity="1"/>
            <stop offset="0.504743" stop-color="#fbfaf8" stop-opacity="0"/>
            <stop offset="1" stop-color="#ffffff" stop-opacity="1"/>
        </linearGradient>
        <path id="Rounded-Rectangle" fill="none" stroke="url(#linearGradient3)" stroke-width="4.035204" stroke-linecap="round" stroke-linejoin="round" d="M 33.656784 102.199371 C 33.63382 105.081215 35.941818 108.392593 39.024853 109.682343 L 66.005516 120.969376 C 72.145981 123.53817 77.680252 122.090408 77.68602 117.456902 L 77.791656 32.633003 C 77.797272 28.124733 72.347626 26.918015 66.281548 29.635483 L 39.510807 41.628159 C 36.439571 43.004005 34.101898 46.337738 34.079323 49.170639 Z"/>
    </g>
</svg>
